#!OML:ASF Y:\EmotionMaleHayes\Project 1\Capture day 1\Session 1\Male1.ASF
:FULLY-SPECIFIED
:DEGREES
2358
root -28.8082 17.0512 0.814408 753.099 86.7571 35.057
lowerback 5.74548 0.931069 -4.85592
upperback 2.10154 1.02008 0.509799
thorax -1.14404 0.514303 3.1837
lowerneck -22.3267 3.38951 5.36833
upperneck 21.6377 3.87008 -3.38419
head 10.8468 1.82246 -1.49612
rclavicle -4.31114e-015 -7.35503e-015
rhumerus -34.5324 -12.783 -78.508
rradius 28.5
rwrist 8.77283
rhand -6.74753 -31.486
rfingers 7.12502
rthumb 19.1136 -60.5668
lclavicle -4.31114e-015 -7.35503e-015
lhumerus -25.8045 -10.5524 92.1662
lradius 25.5832
lwrist -13.1332
lhand -16.9069 -25.815
lfingers 7.12502
lthumb 9.32515 3.95876
rfemur 6.70737 -4.77607 12.9511
rtibia 5.93386
rfoot -16.8407 -6.07826
rtoes 2.14575
lfemur 9.05909 2.72071 -16.9496
ltibia 0.700201
lfoot -9.60988 6.56858
ltoes -5.90933
2359
root -28.8112 17.0552 0.811389 749.317 86.6505 31.3099
lowerback 5.74581 0.957372 -4.7688
upperback 2.15876 1.063 0.573344
thorax -1.08885 0.533783 3.1979
lowerneck -22.3779 3.42611 5.35565
upperneck 21.5938 3.93817 -3.45316
head 10.8447 1.84225 -1.50763
rclavicle 1.963e-015 -3.97569e-016
rhumerus -34.2726 -12.5351 -78.6996
rradius 28.6388
rwrist 8.55514
rhand -6.86447 -31.9276
rfingers 7.12502
rthumb 19.0012 -61.0195
lclavicle 1.963e-015 -3.97569e-016
lhumerus -25.8025 -10.5944 92.3037
lradius 25.5917
lwrist -13.0974
lhand -16.8693 -26.2614
lfingers 7.12502
lthumb 9.36143 3.51077
rfemur 6.66622 -4.33204 13.2457
rtibia 5.95032
rfoot -16.8641 -6.39314
rtoes 1.89153
lfemur 9.16888 2.68348 -16.8186
ltibia 0.627456
lfoot -9.66165 6.75418
ltoes -2.75894
2360
root -28.8218 17.0576 0.809454 747.886 86.6614 29.8936
lowerback 5.81866 0.943994 -4.68133
upperback 2.20327 1.04856 0.578509
thorax -1.08092 0.526327 3.15441
lowerneck -22.3442 3.45842 5.41761
upperneck 21.4255 3.96668 -3.49719
head 10.7803 1.85352 -1.52915
rclavicle -6.98231e-015 6.65929e-015
rhumerus -34.0147 -12.2886 -78.9518
rradius 28.7946
rwrist 8.3666
rhand -7.02888 -31.9347
rfingers 7.12502
rthumb 18.843 -61.042
lclavicle -6.98231e-015 6.65929e-015
lhumerus -25.7824 -10.7118 92.3658
lradius 25.6095
lwrist -13.106
lhand -16.7005 -26.3456
lfingers 7.12502
lthumb 9.52428 3.41913
rfemur 6.58944 -4.11988 13.434
rtibia 5.98801
rfoot -16.8688 -6.66728
rtoes 1.87156
lfemur 9.14895 2.6079 -16.756
ltibia 0.621381
lfoot -9.66704 6.85928
ltoes -5.00589
2361
root -28.8257 17.0576 0.806911 751.138 86.4824 33.1129
lowerback 5.67638 0.935869 -4.85473
upperback 2.30115 1.03842 0.435018
thorax -0.899587 0.515843 3.10693
lowerneck -22.2685 3.48861 5.4741
upperneck 21.1483 3.96547 -3.44381
head 10.6644 1.86246 -1.51939
rclavicle 5.81445e-015 -7.85199e-015
rhumerus -33.6684 -12.1254 -79.3009
rradius 28.8971
rwrist 8.09446
rhand -7.41922 -31.7756
rfingers 7.12502
rthumb 18.4676 -60.919
lclavicle 5.81445e-015 -7.85199e-015
lhumerus -25.6781 -10.8075 92.2988
lradius 25.5729
lwrist -13.1995
lhand -16.2158 -26.3506
lfingers 7.12502
lthumb 9.99194 3.39226
rfemur 6.45387 -4.19401 13.1147
rtibia 6.10511
rfoot -16.9016 -6.59542
rtoes 2.07355
lfemur 9.11474 2.72061 -17.1008
ltibia 0.563634
lfoot -9.58917 6.89406
ltoes -3.09405
2362
root -28.8291 17.0578 0.804174 754.529 86.2752 36.4994
lowerback 5.77636 0.967583 -5.25356
upperback 2.25245 1.052 0.431263
thorax -1.01239 0.524792 3.3248
lowerneck -22.2125 3.46092 5.41711
upperneck 21.1021 3.95903 -3.48559
head 10.6364 1.85015 -1.52656
rclavicle -3.54085e-015 4.27387e-015
rhumerus -33.5374 -11.7195 -79.4329
rradius 29.0265
rwrist 7.71167
rhand -7.71863 -32.0229
rfingers 7.12502
rthumb 18.1796 -61.1933
lclavicle -3.54085e-015 4.27387e-015
lhumerus -25.904 -10.762 92.5038
lradius 25.5911
lwrist -13.4035
lhand -15.9592 -26.5249
lfingers 7.12502
lthumb 10.2395 3.20589
rfemur 6.34168 -4.37862 12.6819
rtibia 6.28046
rfoot -16.9627 -6.34789
rtoes 2.58026
lfemur 9.07335 2.84962 -17.4818
ltibia 0.590388
lfoot -9.55355 6.89922
ltoes -4.984
2363
root -28.8343 17.0559 0.801578 754.013 86.2689 36.0368
lowerback 5.85625 0.949573 -5.18331
upperback 2.30159 1.02968 0.397254
thorax -1.00231 0.513438 3.25095
lowerneck -22.2669 3.49066 5.55349
upperneck 21.066 3.97249 -3.58032
head 10.6392 1.85427 -1.58051
rclavicle 8.69683e-016 6.65929e-015
rhumerus -33.2634 -11.4459 -79.7306
rradius 29.176
rwrist 7.57954
rhand -7.70265 -32.1658
rfingers 7.12502
rthumb 18.1949 -61.3348
lclavicle 8.69683e-016 6.65929e-015
lhumerus -26.0094 -10.8714 92.5384
lradius 25.6414
lwrist -13.4077
lhand -16.2181 -26.7222
lfingers 7.12502
lthumb 9.98976 3.02076
rfemur 6.32226 -4.57435 12.6173
rtibia 6.44265
rfoot -16.9832 -6.07855
rtoes 3.26477
lfemur 9.09272 2.8507 -17.4763
ltibia 0.637761
lfoot -9.60293 6.91453
ltoes -3.39676
2364
root -28.839 17.0533 0.799326 753.623 86.2903 35.6809
lowerback 5.92839 0.929009 -5.20569
upperback 2.34869 1.00025 0.463214
thorax -0.992328 0.497764 3.33339
lowerneck -22.3767 3.52327 5.56624
upperneck 21.0537 4.04039 -3.71465
head 10.6618 1.86753 -1.61938
rclavicle 5.50385e-015 1.39149e-015
rhumerus -33.0317 -11.1013 -79.8565
rradius 29.3888
rwrist 7.5049
rhand -7.67588 -32.0483
rfingers 7.12502
rthumb 18.2207 -61.2149
lclavicle 5.50385e-015 1.39149e-015
lhumerus -25.9833 -10.846 92.6944
lradius 25.6052
lwrist -13.3633
lhand -16.4164 -26.7079
lfingers 7.12502
lthumb 9.79839 3.04417
rfemur 6.34152 -4.65424 12.6111
rtibia 6.53462
rfoot -17.0302 -5.8866
rtoes 3.93296
lfemur 9.1088 2.75364 -17.4818
ltibia 0.649101
lfoot -9.65105 6.97456
ltoes -3.79885
2365
root -28.8424 17.05 0.797412 753.864 86.1411 35.9006
lowerback 5.88935 0.932352 -5.25907
upperback 2.38004 1.00505 0.423426
thorax -0.938652 0.498353 3.32262
lowerneck -22.4056 3.5426 5.5553
upperneck 20.9929 4.07989 -3.76828
head 10.6479 1.87686 -1.63026
rclavicle -5.54112e-015 -1.19271e-015
rhumerus -32.847 -10.701 -80.0992
rradius 29.5905
rwrist 7.29098
rhand -7.8073 -31.8289
rfingers 7.12502
rthumb 18.0942 -61.0072
lclavicle -5.54112e-015 -1.19271e-015
lhumerus -26.035 -11.0215 92.7943
lradius 25.656
lwrist -13.1938
lhand -16.3243 -26.5102
lfingers 7.12502
lthumb 9.88729 3.23765
rfemur 6.27117 -4.6883 12.4799
rtibia 6.55456
rfoot -16.9619 -5.73218
rtoes 3.67776
lfemur 9.0793 2.75528 -17.6301
ltibia 0.660489
lfoot -9.71995 7.09672
ltoes -2.08523
2366
root -28.845 17.0477 0.796444 752.123 86.0101 34.1572
lowerback 5.90037 0.976524 -5.22534
upperback 2.37797 1.06487 0.4278
thorax -0.952309 0.528697 3.30383
lowerneck -22.39 3.55516 5.5579
upperneck 20.9612 4.10318 -3.79571
head 10.6354 1.88426 -1.63693
rclavicle 2.77056e-015 -2.78299e-015
rhumerus -32.7424 -10.1443 -80.3821
rradius 29.85
rwrist 6.92243
rhand -7.94316 -31.6105
rfingers 7.12502
rthumb 17.9635 -60.801
lclavicle 2.77056e-015 -2.78299e-015
lhumerus -26.2448 -11.3764 92.9805
lradius 25.7648
lwrist -12.937
lhand -16.0588 -26.304
lfingers 7.12502
lthumb 10.1434 3.4315
rfemur 6.18201 -4.7186 12.5026
rtibia 6.58831
rfoot -16.7635 -5.62713
rtoes 3.14908
lfemur 9.08855 2.7673 -17.6166
ltibia 0.674639
lfoot -9.82658 7.26862
ltoes -3.85975
2367
root -28.8498 17.048 0.79663 752.602 85.9019 34.6933
lowerback 6.00337 0.999087 -5.29462
upperback 2.39515 1.0859 0.371528
thorax -0.993812 0.540375 3.28178
lowerneck -22.4006 3.58461 5.58815
upperneck 20.9446 4.11996 -3.74966
head 10.6318 1.89969 -1.62243
rclavicle 4.53478e-015 4.77083e-015
rhumerus -32.5774 -9.62958 -80.7281
rradius 30.0395
rwrist 6.66194
rhand -8.06887 -31.6461
rfingers 7.12502
rthumb 17.8426 -60.8475
lclavicle 4.53478e-015 4.77083e-015
lhumerus -26.3875 -11.7581 93.1044
lradius 25.7447
lwrist -12.6537
lhand -15.9677 -26.0864
lfingers 7.12502
lthumb 10.2314 3.64482
rfemur 6.17834 -4.67175 12.3912
rtibia 6.63424
rfoot -16.6675 -5.63985
rtoes 3.12956
lfemur 9.10941 2.64852 -17.7666
ltibia 0.723341
lfoot -9.92414 7.44086
ltoes -2.80277
2368
root -28.854 17.0452 0.797188 755.8 85.7074 37.9515
lowerback 6.11742 1.02461 -5.59251
upperback 2.39817 1.09606 0.260521
thorax -1.05733 0.546991 3.33203
lowerneck -22.4117 3.58706 5.62871
upperneck 20.9285 4.09626 -3.70692
head 10.6267 1.89708 -1.61728
rclavicle 7.76503e-015 -1.31198e-014
rhumerus -32.4188 -9.21934 -81.0035
rradius 30.156
rwrist 6.65622
rhand -8.24555 -31.5285
rfingers 7.12502
rthumb 17.6726 -60.7454
lclavicle 7.76503e-015 -1.31198e-014
lhumerus -26.4752 -11.9673 93.1777
lradius 25.6114
lwrist -12.5681
lhand -15.8667 -26.0549
lfingers 7.12502
lthumb 10.3288 3.67149
rfemur 6.26111 -4.48503 12.0639
rtibia 6.50102
rfoot -16.6775 -5.78863
rtoes 3.45533
lfemur 9.12266 2.62272 -18.1609
ltibia 0.763017
lfoot -9.9249 7.49823
ltoes -1.74523
2369
root -28.8548 17.0401 0.796117 757.752 85.4627 39.878
lowerback 6.09998 1.07038 -5.80744
upperback 2.38044 1.14401 0.142384
thorax -1.0717 0.571514 3.32699
lowerneck -22.3744 3.58539 5.68524
upperneck 20.8842 4.0668 -3.67702
head 10.6027 1.89209 -1.62067
rclavicle 3.72721e-016 -1.49089e-014
rhumerus -32.3314 -8.82826 -81.2601
rradius 30.3215
rwrist 6.73708
rhand -8.31542 -31.0108
rfingers 7.12502
rthumb 17.6053 -60.2337
lclavicle 3.72721e-016 -1.49089e-014
lhumerus -26.6129 -12.0204 93.2126
lradius 25.5255
lwrist -12.8564
lhand -15.4944 -26.3637
lfingers 7.12502
lthumb 10.6879 3.34445
rfemur 6.22657 -4.36023 11.777
rtibia 6.45591
rfoot -16.7046 -5.80648
rtoes 3.74777
lfemur 9.109 2.71682 -18.5109
ltibia 0.739951
lfoot -9.88959 7.60614
ltoes -2.13954
2370
root -28.8588 17.0385 0.795221 755.105 85.3689 37.2057
lowerback 6.12577 1.12836 -5.58664
upperback 2.36243 1.23047 0.100712
thorax -1.10888 0.61678 3.15277
lowerneck -22.3394 3.58857 5.73843
upperneck 20.8399 4.05089 -3.66855
head 10.5804 1.89031 -1.62906
rclavicle 5.67779e-015 -5.06901e-015
rhumerus -32.2217 -8.51057 -81.5576
rradius 30.4295
rwrist 6.70241
rhand -8.30144 -30.9212
rfingers 7.12502
rthumb 17.6188 -60.1429
lclavicle 5.67779e-015 -5.06901e-015
lhumerus -26.853 -12.2197 93.2734
lradius 25.5912
lwrist -13.1431
lhand -15.9189 -26.3445
lfingers 7.12502
lthumb 10.2784 3.3844
rfemur 6.09632 -4.23989 11.9589
rtibia 6.61182
rfoot -16.799 -5.72169
rtoes 3.60521
lfemur 9.10794 2.85734 -18.3752
ltibia 0.728541
lfoot -9.86451 7.80264
ltoes -3.52697
2371
root -28.8646 17.0388 0.794829 749.676 85.4613 31.8122
lowerback 6.25101 1.16179 -5.06423
upperback 2.35921 1.2978 0.149826
thorax -1.18 0.653538 2.90293
lowerneck -22.339 3.57763 5.74174
upperneck 20.8259 4.02737 -3.64418
head 10.5735 1.88271 -1.62451
rclavicle -3.60297e-015 1.91827e-014
rhumerus -32.0712 -7.98688 -81.9349
rradius 30.5383
rwrist 6.53136
rhand -8.37158 -31.3722
rfingers 7.12502
rthumb 17.5513 -60.5999
lclavicle -3.60297e-015 1.91827e-014
lhumerus -27.0667 -12.2537 93.2651
lradius 25.71
lwrist -13.214
lhand -16.3363 -26.026
lfingers 7.12502
lthumb 9.87568 3.72238
rfemur 6.07792 -4.16332 12.4885
rtibia 6.6673
rfoot -16.8888 -5.6178
rtoes 3.63308
lfemur 9.16046 2.88557 -17.8661
ltibia 0.753848
lfoot -9.93735 7.95853
ltoes -4.05081
